<svg width="54" height="55" viewBox="0 0 54 55" fill="none" xmlns="http://www.w3.org/2000/svg">
    <path d="M52.4102 28.6427C51.3859 27.317 49.5776 27.0156 47.6491 27.7997C47.1664 27.981 46.4435 28.2824 45.6006 28.6427L49.0973 19.0595C49.3986 18.2166 49.3374 17.3124 48.9772 16.5283C48.6145 15.7442 47.9529 15.1414 47.1076 14.84C46.5048 14.5998 45.8407 14.5998 45.2379 14.7788L45.6594 13.5732C45.9608 12.7303 45.8996 11.8261 45.5393 11.042C45.1767 10.2579 44.5151 9.65507 43.6697 9.35367C41.9814 8.75088 40.1142 9.65507 39.5114 11.2821C39.1488 10.7994 38.6073 10.3779 38.0045 10.1378C36.3162 9.53499 34.449 10.4392 33.7849 12.1275L33.1821 13.8158C32.8195 13.3331 32.278 12.9116 31.6752 12.7303C29.9869 12.1275 28.1197 13.0317 27.4556 14.7788L25.5272 20.2039L24.623 17.9128C24.3216 17.0699 23.6576 16.4058 22.8759 16.0432C22.0918 15.6806 21.2488 15.6806 20.4647 15.982C19.8619 16.2221 19.3792 16.646 19.019 17.1263L18.355 15.4993C18.0536 14.6563 17.3895 13.9923 16.6078 13.6296C15.8237 13.267 14.9808 13.267 14.1967 13.5684C13.5939 13.8086 13.1112 14.2325 12.751 14.7128C12.3883 13.9287 11.7855 13.3259 11.0038 12.9656C10.2197 12.603 9.37678 12.603 8.59267 12.9044C6.96562 13.5685 6.12027 15.4969 6.78431 17.1852L7.26701 18.3908C6.66422 18.2707 6.06143 18.2707 5.45864 18.5109C3.83159 19.1749 2.98624 21.1033 3.65027 22.7916L7.93104 33.6418L5.33856 32.0736C4.6157 31.5909 3.77035 31.3508 2.98865 31.4708C2.14571 31.5909 1.3616 32.0736 0.878885 32.7965C-0.145375 34.2422 0.214852 36.2931 1.60175 37.3787C2.13626 37.9273 9.12939 43.4723 11.6611 45.2806C13.5307 46.6063 15.8194 47.3291 18.1103 47.3291C19.6173 47.3291 21.1855 47.0277 22.6925 46.425C25.0424 45.4595 27.0321 43.8325 28.3578 41.6639C29.0806 42.1466 29.8647 42.5068 30.7077 42.8082C32.0946 43.2909 33.5403 43.5311 34.9885 43.5311C37.5197 43.5311 39.9308 42.747 41.982 41.24C44.5133 39.3704 51.4452 33.5852 51.8666 33.2223C53.2535 32.1391 53.4936 30.0294 52.4105 28.6425L52.4102 28.6427ZM22.0893 45.0404C18.7739 46.366 15.2187 46.0058 12.4446 44.0749C9.97223 42.2666 2.73851 36.4786 2.68004 36.4201C1.89594 35.8173 1.71462 34.673 2.25856 33.8276C2.49874 33.465 2.92259 33.1636 3.4029 33.1048C3.8856 33.0435 4.30708 33.166 4.66972 33.4062C4.66972 33.4062 4.73094 33.4062 4.73094 33.4674L9.25186 36.1799C9.49204 36.3612 9.85465 36.3 10.0948 36.1187C10.335 35.9374 10.3962 35.5771 10.2761 35.2758L5.1524 22.3773C4.78978 21.4119 5.21362 20.3876 6.11783 20.0274C6.48044 19.9073 6.90193 19.9073 7.3234 20.0886C7.74489 20.2699 8.10751 20.6302 8.34766 21.054L11.0602 28.0476C11.1803 28.349 11.4817 28.5303 11.7243 28.5303C11.7855 28.5303 11.9056 28.5303 11.9644 28.4691C12.327 28.349 12.506 27.8663 12.3859 27.5036L9.7346 20.753V20.6918C9.7346 20.6306 9.67338 20.5717 9.67338 20.5105L8.22765 16.7737C7.86503 15.8082 8.28887 14.784 9.19308 14.4237C9.61456 14.2424 10.0973 14.2424 10.5187 14.4237C10.9402 14.605 11.3028 14.9653 11.4842 15.448L12.4496 17.9792L15.5836 26.1169C15.7037 26.4183 16.0051 26.5996 16.2476 26.5996C16.3089 26.5996 16.429 26.5996 16.4878 26.5384C16.8504 26.4183 17.0294 25.9356 16.9093 25.5729L13.8954 17.6752L13.8341 17.4939C13.4715 16.5285 13.8954 15.5042 14.7996 15.144C15.221 14.9627 15.7037 14.9627 16.1252 15.144C16.5467 15.3253 16.9093 15.6855 17.0906 16.1682L18.7177 20.2677C18.7177 20.3289 18.7177 20.3289 18.7789 20.3878L20.9499 26.1143C21.07 26.4769 21.5527 26.6558 21.9153 26.5358C22.278 26.4157 22.4569 25.933 22.3368 25.5703L20.107 19.8438C19.7444 18.8784 20.1682 17.8541 21.0724 17.4939C21.4939 17.3126 21.9766 17.3126 22.3981 17.4939C22.8196 17.6752 23.1822 18.0355 23.3635 18.5182L28.1858 31.0568C30.1661 36.7221 27.5147 42.8703 22.0898 45.0409L22.0893 45.0404ZM50.9032 32.0804C50.842 32.1416 43.5498 38.1698 41.0771 40.0366C38.3646 42.0851 34.6279 42.5678 31.2511 41.3623C30.5282 41.1221 29.8053 40.7595 29.1413 40.338C29.2025 40.2179 29.2614 40.0978 29.3226 39.9165C30.5894 36.9638 30.7095 33.6487 29.624 30.5733L26.4287 22.3741L28.9011 15.3221C29.2637 14.3567 30.288 13.8764 31.1922 14.1778C31.6137 14.3591 31.9763 14.6605 32.2165 15.0819C32.3978 15.5034 32.4567 16.0474 32.2777 16.4688L30.1067 22.6167C29.9866 22.9793 30.1679 23.4008 30.5282 23.5821C30.5894 23.5821 30.7095 23.6433 30.7683 23.6433C31.0697 23.6433 31.3711 23.462 31.4912 23.1606L33.6622 17.0128C33.6622 16.9516 33.6622 16.9516 33.7234 16.8927L35.2304 12.7344C35.593 11.769 36.6173 11.2887 37.5215 11.5901C37.943 11.7714 38.3056 12.0728 38.5458 12.4943C38.7271 12.9157 38.7859 13.4597 38.607 13.94L38.5458 14.1213L35.5318 22.8618C35.4117 23.2244 35.593 23.6459 36.0145 23.8272C36.0757 23.8272 36.1958 23.8884 36.2547 23.8884C36.5561 23.8884 36.8575 23.7071 36.9775 23.4057L40.1116 14.4838L41.0158 11.9526C41.3784 10.9871 42.4027 10.5068 43.3068 10.8082C43.7283 10.9895 44.091 11.2909 44.3311 11.7124C44.5124 12.1339 44.5713 12.6779 44.3923 13.0993L43.0667 16.7161C43.0054 16.8361 43.0054 16.8974 42.9466 17.0175C42.9466 17.0787 42.9466 17.1375 42.8854 17.1375L40.1728 24.6109C40.0527 24.9735 40.234 25.395 40.5943 25.5764C40.6555 25.5764 40.7756 25.6376 40.8345 25.6376C41.1359 25.6376 41.4373 25.4563 41.5573 25.1549L44.39 17.3186C44.8114 16.4757 45.8357 15.993 46.6198 16.2943C47.0413 16.4757 47.4039 16.7771 47.6441 17.1985C47.8254 17.62 47.8842 18.164 47.7053 18.5854L43.7259 29.3742C43.0619 29.6143 42.4591 29.8569 42.1577 29.9769C38.3596 28.5312 36.3111 30.2171 34.6228 31.5452C34.3214 31.7853 34.2602 32.268 34.5027 32.5694C34.7429 32.8708 35.2256 32.932 35.527 32.6895C37.154 31.3639 38.661 30.097 41.8563 31.4227C42.0376 31.4839 42.2189 31.4839 42.3978 31.4227C42.5792 31.3615 46.7374 29.7344 48.1856 29.1316C48.9697 28.8302 50.4154 28.4087 51.1995 29.4942C51.8659 30.3301 51.6846 31.4769 50.9029 32.0796L50.9032 32.0804Z" fill="rgba(148, 253, 255, 0.75)"/>
    <path d="M9.78992 7.84682L13.5267 10.258C13.6468 10.3192 13.7669 10.3781 13.9482 10.3781C14.1884 10.3781 14.4309 10.258 14.551 10.0155C14.7912 9.65284 14.6711 9.23134 14.3108 8.99119L10.574 6.58003C10.2114 6.33986 9.78991 6.45994 9.54976 6.82021C9.30958 7.18518 9.42967 7.60667 9.78993 7.84682H9.78992Z" fill="#fff"/>
    <path d="M18.5919 7.24288C18.712 7.54427 18.9545 7.72558 19.3148 7.72558C19.376 7.72558 19.4961 7.72558 19.5549 7.66436C19.9176 7.54427 20.1577 7.12279 20.0376 6.69893L17.9891 0.73463C17.869 0.372016 17.4475 0.131841 17.0237 0.251928C16.6611 0.372016 16.4209 0.793498 16.541 1.21736L18.5919 7.24288Z" fill="#fff"/>
    <path d="M25.1028 6.70125C25.164 6.76247 25.2841 6.76247 25.343 6.76247C25.6444 6.76247 25.9458 6.58116 26.007 6.27977L27.514 2.12149C27.6341 1.75887 27.4528 1.33738 27.0925 1.15606C26.7299 1.03597 26.3084 1.21728 26.1271 1.57754L24.6201 5.73582C24.5 6.15966 24.7402 6.58112 25.1028 6.70125Z" fill="#fff"/>
    <path d="M30.4093 48.2929C30.0466 48.1729 29.6252 48.413 29.5051 48.7756L28.2383 52.9952C28.1182 53.3578 28.3583 53.7793 28.721 53.8994C28.7822 53.8994 28.841 53.9606 28.9611 53.9606C29.2625 53.9606 29.5639 53.7793 29.684 53.419L30.9508 49.1995C31.012 48.8345 30.8307 48.413 30.4093 48.2929H30.4093Z" fill="#fff"/>
    <path d="M36.676 47.2067C36.4947 46.8441 36.0732 46.6651 35.7106 46.7852C35.348 46.9665 35.169 47.388 35.2891 47.7506L37.7003 53.5972C37.8204 53.8986 38.1218 54.0799 38.3643 54.0799C38.4844 54.0799 38.5456 54.0799 38.6657 54.0187C39.0283 53.8374 39.2073 53.4159 39.0872 53.0533L36.676 47.2067Z" fill="#fff"/>
    <path d="M45.4773 45.7623L41.6204 43.5913C41.2578 43.41 40.8363 43.5301 40.5962 43.8927C40.4149 44.2553 40.535 44.6768 40.8976 44.9169L44.7545 47.0879C44.8745 47.1492 44.9946 47.208 45.1171 47.208C45.3572 47.208 45.5998 47.088 45.7811 46.8454C45.9577 46.4239 45.8376 46.0025 45.4774 45.7623L45.4773 45.7623Z" fill="#fff"/>
</svg>
