<?xml version="1.0" encoding="UTF-8" standalone="no" ?>
<!DOCTYPE svg PUBLIC "-//W3C//DTD SVG 1.1//EN" "http://www.w3.org/Graphics/SVG/1.1/DTD/svg11.dtd">
<svg xmlns="http://www.w3.org/2000/svg" xmlns:xlink="http://www.w3.org/1999/xlink" version="1.1" width="350" height="350" viewBox="-135 0 450 350" xml:space="preserve">
<desc>Created with Fabric.js 1.7.22</desc>
<defs>
</defs>
<g id="icon" style="stroke: none; stroke-width: 1; stroke-dasharray: none; stroke-linecap: butt; stroke-linejoin: miter; stroke-miterlimit: 10; fill: none; fill-rule: nonzero; opacity: 1;" transform="translate(-1.9444444444444287 -1.9444444444444287) scale(3.89 3.89)" >
	<path d="M 43.131 54.997 c -0.762 0 -1.524 -0.29 -2.104 -0.87 l -7.625 -7.624 c -1.16 -1.16 -1.16 -3.048 0 -4.209 l 2.25 -2.25 c 1.16 -1.16 3.047 -1.16 4.208 0 l 3.271 3.271 l 7.009 -7.009 c 1.123 -1.123 3.084 -1.125 4.209 0 l 2.249 2.25 c 1.16 1.16 1.16 3.048 0 4.208 L 45.235 54.127 C 44.655 54.707 43.893 54.997 43.131 54.997 z" style="stroke: none; stroke-width: 1; stroke-dasharray: none; stroke-linecap: butt; stroke-linejoin: miter; stroke-miterlimit: 10; fill: rgba(148, 253, 255, 0.75); fill-rule: nonzero; opacity: 1;" transform=" matrix(1 0 0 1 0 0) " stroke-linecap="round" />
	<path d="M 75.712 12.984 C 64.973 11.03 55.602 6.991 47.859 0.979 c -1.684 -1.307 -4.035 -1.307 -5.719 0 C 34.398 6.991 25.028 11.03 14.288 12.984 h 0 c -2.231 0.405 -3.85 2.352 -3.85 4.628 v 32.527 c 0 17.479 12.668 32.98 32.272 39.492 c 0.738 0.245 1.514 0.368 2.29 0.368 s 1.552 -0.123 2.29 -0.368 c 19.604 -6.511 32.271 -22.013 32.271 -39.492 V 17.612 C 79.562 15.335 77.942 13.389 75.712 12.984 z M 45 65.5 c -11.855 0 -21.5 -9.645 -21.5 -21.5 c 0 -11.855 9.645 -21.5 21.5 -21.5 c 11.855 0 21.5 9.645 21.5 21.5 C 66.5 55.855 56.855 65.5 45 65.5 z" style="stroke: none; stroke-width: 1; stroke-dasharray: none; stroke-linecap: butt; stroke-linejoin: miter; stroke-miterlimit: 10; fill: rgba(148, 253, 255, 0.75); fill-rule: nonzero; opacity: 1;" transform=" matrix(1 0 0 1 0 0) " stroke-linecap="round" />
</g>
</svg>